<svg width="21" height="21" viewBox="0 0 21 21" fill="none" xmlns="http://www.w3.org/2000/svg">
<path d="M6.7007 12.9129C6.40048 13.5284 6.27289 14.0436 6.26472 14.0774C6.22034 14.2606 6.29976 14.45 6.45874 14.5475C6.54576 14.6009 8.60984 15.8473 10.3236 15.14C10.4608 15.0834 10.5946 15.0214 10.7245 14.9546C9.26307 14.5898 7.89335 13.8237 6.7007 12.9129Z" fill="#78C0DE"/>
<path d="M6.73881 7.34251C6.74213 7.34514 6.8905 7.46527 7.08701 7.65872C8.68367 6.52145 10.5584 5.67388 12.5194 5.6739C12.9521 5.67382 13.3883 5.69984 13.8264 5.7512C13.602 5.3478 13.2286 4.9268 12.6281 4.52652C11.45 3.74112 9.92963 4.3387 8.73492 5.09093C7.60657 5.80137 6.73985 6.66328 6.70352 6.69961C6.5227 6.88043 6.53719 7.18001 6.73881 7.34251Z" fill="#78C0DE"/>
<path d="M5.5128 11.9073C5.3306 11.7362 5.06906 11.48 4.90195 11.2932C4.46076 10.8002 4.46072 10.0567 4.9024 9.56313C5.01675 9.43558 5.24545 9.20032 5.51276 8.94952C5.04377 8.59447 4.46789 8.04797 3.92539 7.23414C3.77432 7.00769 3.4532 6.97517 3.2601 7.16827C2.61512 7.81324 2.2603 8.59066 2.28659 9.30112C2.3143 10.0494 2.31432 10.8079 2.28661 11.5557C2.2603 12.2662 2.61512 13.0435 3.2601 13.6885C3.45287 13.8813 3.7742 13.8494 3.92537 13.6226C4.46791 12.8088 5.04381 12.2623 5.5128 11.9073Z" fill="#78C0DE"/>
<path d="M15.3493 13.6751C14.0411 12.1703 14.0385 8.69729 15.3458 7.18566C15.3609 7.1682 15.3515 7.17836 15.5493 6.98048C14.5326 6.68715 13.5148 6.53822 12.5196 6.5384C10.3064 6.53836 8.14238 7.78953 6.49092 9.2301C6.07707 9.5913 5.71748 9.94885 5.546 10.1401C5.39913 10.3042 5.39913 10.5525 5.54602 10.7166C5.91398 11.128 6.67683 11.8334 7.49759 12.4288C8.75251 13.3381 10.2019 14.0715 11.7326 14.2671C11.7395 14.2608 12.0087 14.3119 12.5484 14.3181C13.5304 14.3153 14.5438 14.169 15.531 13.8848L15.3493 13.6751Z" fill="#78C0DE"/>
<path d="M19.8427 11.4044C20.0468 11.147 20.2307 10.8153 20.2547 10.4848C20.3084 9.75839 19.5007 9.01459 18.9139 8.58189C18.1849 8.04426 17.308 7.6027 16.4672 7.28538L15.9902 7.7624C14.9741 8.95732 14.9817 11.9345 16.0023 13.1085L16.4211 13.5917C17.5851 13.158 19.0792 12.3796 19.8427 11.4044ZM16.7024 10.0649C16.6336 9.84588 16.7548 9.59764 16.9901 9.52617C17.2131 9.45208 17.4844 9.58876 17.5395 9.85503C17.5615 9.96288 17.5407 10.0792 17.4751 10.1794C17.2636 10.4881 16.8052 10.4054 16.7024 10.0649Z" fill="#78C0DE"/>
</svg>
