<svg width="85" height="80" viewBox="0 0 85 80" fill="none" xmlns="http://www.w3.org/2000/svg">
<g filter="url(#filter0_dd_181_40)">
<path d="M79.0643 24.928L75.8451 27.9038H8.41374L5.11597 24.928V17.8016C5.11597 16.1764 6.4335 14.8588 8.05872 14.8588H76.1216C77.7468 14.8588 79.0643 16.1764 79.0643 17.8016V24.928Z" fill="#FFBD54"/>
<path d="M76.1212 14.8588H72.6257C74.251 14.8588 75.5685 16.1764 75.5685 17.8016V27.9038L79.064 24.928V17.8016C79.064 16.1764 77.7466 14.8588 76.1212 14.8588Z" fill="#D99830"/>
<path d="M79.0643 24.928H5.11597V67.805C5.11597 69.4302 6.4335 70.7477 8.05872 70.7477H76.1216C77.7468 70.7477 79.0643 69.4302 79.0643 67.805V24.928Z" fill="#F4FBFF"/>
<path d="M75.5688 24.928H5.11597V28.1614H71.8168C73.889 28.1614 75.5688 29.8412 75.5688 31.9134V67.8051C75.5688 69.4303 74.2513 70.7479 72.6261 70.7479H76.1216C77.7468 70.7479 79.0643 69.4303 79.0643 67.8051V24.928H75.5688Z" fill="#DAF1F4"/>
<path d="M42.09 6.54597C43.5915 6.54597 44.8087 5.32878 44.8087 3.82729C44.8087 2.3258 43.5915 1.10861 42.09 1.10861C40.5885 1.10861 39.3713 2.3258 39.3713 3.82729C39.3713 5.32878 40.5885 6.54597 42.09 6.54597Z" fill="#365E7D"/>
<path d="M55.1222 18.7775H29.0583C28.4419 18.7775 27.9424 19.277 27.9424 19.8934C27.9424 20.5099 28.4419 21.0094 29.0583 21.0094H55.1222C55.7386 21.0094 56.2381 20.5099 56.2381 19.8934C56.2381 19.277 55.7385 18.7775 55.1222 18.7775Z" fill="black"/>
<path d="M15.5688 31.3819H11.0476C10.4311 31.3819 9.93164 31.8814 9.93164 32.4978C9.93164 33.1143 10.4311 33.6138 11.0476 33.6138H15.5688C16.1853 33.6138 16.6847 33.1143 16.6847 32.4978C16.6847 31.8814 16.1851 31.3819 15.5688 31.3819Z" fill="black"/>
<path d="M25.1631 31.3819H20.6418C20.0254 31.3819 19.5259 31.8814 19.5259 32.4978C19.5259 33.1143 20.0254 33.6138 20.6418 33.6138H25.1631C25.7795 33.6138 26.279 33.1143 26.279 32.4978C26.279 31.8814 25.7795 31.3819 25.1631 31.3819Z" fill="black"/>
<path d="M34.7568 31.3819H30.2355C29.6191 31.3819 29.1196 31.8814 29.1196 32.4978C29.1196 33.1143 29.6191 33.6138 30.2355 33.6138H34.7568C35.3733 33.6138 35.8727 33.1143 35.8727 32.4978C35.8727 31.8814 35.3731 31.3819 34.7568 31.3819Z" fill="black"/>
<path d="M44.3508 31.3819H39.8295C39.2131 31.3819 38.7136 31.8814 38.7136 32.4978C38.7136 33.1143 39.2131 33.6138 39.8295 33.6138H44.3508C44.9672 33.6138 45.4667 33.1143 45.4667 32.4978C45.4667 31.8814 44.9672 31.3819 44.3508 31.3819Z" fill="black"/>
<path d="M53.9448 31.3819H49.4235C48.8071 31.3819 48.3076 31.8814 48.3076 32.4978C48.3076 33.1143 48.8071 33.6138 49.4235 33.6138H53.9448C54.5612 33.6138 55.0607 33.1143 55.0607 32.4978C55.0607 31.8814 54.5611 31.3819 53.9448 31.3819Z" fill="black"/>
<path d="M63.5386 31.3819H59.0173C58.4009 31.3819 57.9014 31.8814 57.9014 32.4978C57.9014 33.1143 58.4009 33.6138 59.0173 33.6138H63.5386C64.155 33.6138 64.6545 33.1143 64.6545 32.4978C64.6545 31.8814 64.155 31.3819 63.5386 31.3819Z" fill="black"/>
<path d="M73.1325 31.3819H68.6113C67.9948 31.3819 67.4954 31.8814 67.4954 32.4978C67.4954 33.1143 67.9948 33.6138 68.6113 33.6138H73.1325C73.749 33.6138 74.2485 33.1143 74.2485 32.4978C74.2485 31.8814 73.7488 31.3819 73.1325 31.3819Z" fill="black"/>
<path d="M15.5688 38.9519H11.0476C10.4311 38.9519 9.93164 39.4514 9.93164 40.0678C9.93164 40.6842 10.4311 41.1837 11.0476 41.1837H15.5688C16.1853 41.1837 16.6847 40.6842 16.6847 40.0678C16.6847 39.4514 16.1851 38.9519 15.5688 38.9519Z" fill="black"/>
<path d="M25.1631 38.9519H20.6418C20.0254 38.9519 19.5259 39.4514 19.5259 40.0678C19.5259 40.6842 20.0254 41.1837 20.6418 41.1837H25.1631C25.7795 41.1837 26.279 40.6842 26.279 40.0678C26.279 39.4514 25.7795 38.9519 25.1631 38.9519Z" fill="black"/>
<path d="M34.7568 38.9519H30.2355C29.6191 38.9519 29.1196 39.4514 29.1196 40.0678C29.1196 40.6842 29.6191 41.1837 30.2355 41.1837H34.7568C35.3733 41.1837 35.8727 40.6842 35.8727 40.0678C35.8727 39.4514 35.3731 38.9519 34.7568 38.9519Z" fill="black"/>
<path d="M44.3508 38.9519H39.8295C39.2131 38.9519 38.7136 39.4514 38.7136 40.0678C38.7136 40.6842 39.2131 41.1837 39.8295 41.1837H44.3508C44.9672 41.1837 45.4667 40.6842 45.4667 40.0678C45.4667 39.4514 44.9672 38.9519 44.3508 38.9519Z" fill="black"/>
<path d="M53.9448 38.9519H49.4235C48.8071 38.9519 48.3076 39.4514 48.3076 40.0678C48.3076 40.6842 48.8071 41.1837 49.4235 41.1837H53.9448C54.5612 41.1837 55.0607 40.6842 55.0607 40.0678C55.0607 39.4514 54.5611 38.9519 53.9448 38.9519Z" fill="black"/>
<path d="M63.5386 38.9519H59.0173C58.4009 38.9519 57.9014 39.4514 57.9014 40.0678C57.9014 40.6842 58.4009 41.1837 59.0173 41.1837H63.5386C64.155 41.1837 64.6545 40.6842 64.6545 40.0678C64.6545 39.4514 64.155 38.9519 63.5386 38.9519Z" fill="black"/>
<path d="M73.1325 38.9519H68.6113C67.9948 38.9519 67.4954 39.4514 67.4954 40.0678C67.4954 40.6842 67.9948 41.1837 68.6113 41.1837H73.1325C73.749 41.1837 74.2485 40.6842 74.2485 40.0678C74.2485 39.4514 73.7488 38.9519 73.1325 38.9519Z" fill="black"/>
<path d="M15.5688 46.5218H11.0476C10.4311 46.5218 9.93164 47.0213 9.93164 47.6378C9.93164 48.2542 10.4311 48.7537 11.0476 48.7537H15.5688C16.1853 48.7537 16.6847 48.2542 16.6847 47.6378C16.6847 47.0213 16.1851 46.5218 15.5688 46.5218Z" fill="black"/>
<path d="M25.1631 46.5218H20.6418C20.0254 46.5218 19.5259 47.0213 19.5259 47.6378C19.5259 48.2542 20.0254 48.7537 20.6418 48.7537H25.1631C25.7795 48.7537 26.279 48.2542 26.279 47.6378C26.279 47.0213 25.7795 46.5218 25.1631 46.5218Z" fill="black"/>
<path d="M34.7568 46.5218H30.2355C29.6191 46.5218 29.1196 47.0213 29.1196 47.6378C29.1196 48.2542 29.6191 48.7537 30.2355 48.7537H34.7568C35.3733 48.7537 35.8727 48.2542 35.8727 47.6378C35.8727 47.0213 35.3731 46.5218 34.7568 46.5218Z" fill="black"/>
<path d="M44.3508 46.5218H39.8295C39.2131 46.5218 38.7136 47.0213 38.7136 47.6378C38.7136 48.2542 39.2131 48.7537 39.8295 48.7537H44.3508C44.9672 48.7537 45.4667 48.2542 45.4667 47.6378C45.4667 47.0213 44.9672 46.5218 44.3508 46.5218Z" fill="black"/>
<path d="M53.9448 46.5218H49.4235C48.8071 46.5218 48.3076 47.0213 48.3076 47.6378C48.3076 48.2542 48.8071 48.7537 49.4235 48.7537H53.9448C54.5612 48.7537 55.0607 48.2542 55.0607 47.6378C55.0607 47.0213 54.5611 46.5218 53.9448 46.5218Z" fill="black"/>
<path d="M63.5386 46.5218H59.0173C58.4009 46.5218 57.9014 47.0213 57.9014 47.6378C57.9014 48.2542 58.4009 48.7537 59.0173 48.7537H63.5386C64.155 48.7537 64.6545 48.2542 64.6545 47.6378C64.6545 47.0213 64.155 46.5218 63.5386 46.5218Z" fill="black"/>
<path d="M73.1325 46.5218H68.6113C67.9948 46.5218 67.4954 47.0213 67.4954 47.6378C67.4954 48.2542 67.9948 48.7537 68.6113 48.7537H73.1325C73.749 48.7537 74.2485 48.2542 74.2485 47.6378C74.2485 47.0213 73.7488 46.5218 73.1325 46.5218Z" fill="black"/>
<path d="M15.5688 54.0917H11.0476C10.4311 54.0917 9.93164 54.5911 9.93164 55.2076C9.93164 55.824 10.4311 56.3235 11.0476 56.3235H15.5688C16.1853 56.3235 16.6847 55.824 16.6847 55.2076C16.6847 54.5911 16.1851 54.0917 15.5688 54.0917Z" fill="black"/>
<path d="M25.1631 54.0917H20.6418C20.0254 54.0917 19.5259 54.5911 19.5259 55.2076C19.5259 55.824 20.0254 56.3235 20.6418 56.3235H25.1631C25.7795 56.3235 26.279 55.824 26.279 55.2076C26.279 54.5911 25.7795 54.0917 25.1631 54.0917Z" fill="black"/>
<path d="M34.7568 54.0917H30.2355C29.6191 54.0917 29.1196 54.5911 29.1196 55.2076C29.1196 55.824 29.6191 56.3235 30.2355 56.3235H34.7568C35.3733 56.3235 35.8727 55.824 35.8727 55.2076C35.8727 54.5911 35.3731 54.0917 34.7568 54.0917Z" fill="black"/>
<path d="M44.3508 54.0917H39.8295C39.2131 54.0917 38.7136 54.5911 38.7136 55.2076C38.7136 55.824 39.2131 56.3235 39.8295 56.3235H44.3508C44.9672 56.3235 45.4667 55.824 45.4667 55.2076C45.4667 54.5911 44.9672 54.0917 44.3508 54.0917Z" fill="black"/>
<path d="M53.9448 54.0917H49.4235C48.8071 54.0917 48.3076 54.5911 48.3076 55.2076C48.3076 55.824 48.8071 56.3235 49.4235 56.3235H53.9448C54.5612 56.3235 55.0607 55.824 55.0607 55.2076C55.0607 54.5911 54.5611 54.0917 53.9448 54.0917Z" fill="black"/>
<path d="M63.5386 54.0917H59.0173C58.4009 54.0917 57.9014 54.5911 57.9014 55.2076C57.9014 55.824 58.4009 56.3235 59.0173 56.3235H63.5386C64.155 56.3235 64.6545 55.824 64.6545 55.2076C64.6545 54.5911 64.155 54.0917 63.5386 54.0917Z" fill="black"/>
<path d="M73.1325 54.0917H68.6113C67.9948 54.0917 67.4954 54.5911 67.4954 55.2076C67.4954 55.824 67.9948 56.3235 68.6113 56.3235H73.1325C73.749 56.3235 74.2485 55.824 74.2485 55.2076C74.2485 54.5911 73.7488 54.0917 73.1325 54.0917Z" fill="black"/>
<path d="M15.5688 61.6616H11.0476C10.4311 61.6616 9.93164 62.1611 9.93164 62.7775C9.93164 63.394 10.4311 63.8935 11.0476 63.8935H15.5688C16.1853 63.8935 16.6847 63.394 16.6847 62.7775C16.6847 62.1611 16.1851 61.6616 15.5688 61.6616Z" fill="black"/>
<path d="M25.1631 61.6616H20.6418C20.0254 61.6616 19.5259 62.1611 19.5259 62.7775C19.5259 63.394 20.0254 63.8935 20.6418 63.8935H25.1631C25.7795 63.8935 26.279 63.394 26.279 62.7775C26.279 62.1611 25.7795 61.6616 25.1631 61.6616Z" fill="black"/>
<path d="M34.7568 61.6616H30.2355C29.6191 61.6616 29.1196 62.1611 29.1196 62.7775C29.1196 63.394 29.6191 63.8935 30.2355 63.8935H34.7568C35.3733 63.8935 35.8727 63.394 35.8727 62.7775C35.8727 62.1611 35.3731 61.6616 34.7568 61.6616Z" fill="black"/>
<path d="M76.1217 13.7429H71.577C71.3884 13.5892 73.009 14.4378 45.8323 0.873824C43.5491 -0.264564 40.7382 -0.317682 38.348 0.873824C11.16 14.4434 12.792 13.5892 12.6033 13.7429H8.05868C5.82074 13.7429 4 15.5637 4 17.8016V67.805C4 70.0429 5.82074 71.8636 8.05868 71.8636H76.1215C78.3595 71.8636 80.18 70.0429 80.18 67.805V62.6691C80.18 62.0526 79.6806 61.5531 79.0641 61.5531C78.4477 61.5531 77.9482 62.0526 77.9482 62.6691V67.805C77.9482 68.8124 77.1287 69.6318 76.1215 69.6318H8.05868C7.05123 69.6318 6.23184 68.8123 6.23184 67.805V26.0439H77.9484V58.2073C77.9484 58.8237 78.4478 59.3232 79.0643 59.3232C79.6807 59.3232 80.1802 58.8237 80.1802 58.2073V17.8016C80.1802 15.5637 78.3596 13.7429 76.1217 13.7429ZM43.6929 3.82729C43.6929 4.7111 42.9739 5.43005 42.0901 5.43005C41.2063 5.43005 40.4873 4.7111 40.4873 3.82729C40.4873 2.99898 41.1189 2.31544 41.9258 2.23287C42.0353 2.23004 42.1449 2.23004 42.2545 2.23287C43.0614 2.31544 43.6929 2.99884 43.6929 3.82729ZM6.23184 17.8016C6.23184 16.7943 7.05137 15.9749 8.05868 15.9749H25.2711C25.8875 15.9749 26.387 15.4754 26.387 14.859C26.387 14.2426 25.8875 13.7431 25.2711 13.7431H17.5419L38.2796 3.40191C38.0253 5.69475 39.8286 7.6619 42.0901 7.6619C44.3538 7.6619 46.1546 5.69222 45.9006 3.40191L66.6383 13.7429H29.7327C29.1163 13.7429 28.6168 14.2424 28.6168 14.8588C28.6168 15.4753 29.1163 15.9748 29.7327 15.9748H76.1215C77.1288 15.9748 77.9482 16.7943 77.9482 17.8015V23.8119H6.23184V17.8016Z" fill="black"/>
</g>
<defs>
<filter id="filter0_dd_181_40" x="0" y="0" width="84.1802" height="79.8636" filterUnits="userSpaceOnUse" color-interpolation-filters="sRGB">
<feFlood flood-opacity="0" result="BackgroundImageFix"/>
<feColorMatrix in="SourceAlpha" type="matrix" values="0 0 0 0 0 0 0 0 0 0 0 0 0 0 0 0 0 0 127 0" result="hardAlpha"/>
<feOffset dy="4"/>
<feGaussianBlur stdDeviation="2"/>
<feColorMatrix type="matrix" values="0 0 0 0 0 0 0 0 0 0 0 0 0 0 0 0 0 0 0.25 0"/>
<feBlend mode="normal" in2="BackgroundImageFix" result="effect1_dropShadow_181_40"/>
<feColorMatrix in="SourceAlpha" type="matrix" values="0 0 0 0 0 0 0 0 0 0 0 0 0 0 0 0 0 0 127 0" result="hardAlpha"/>
<feOffset dy="4"/>
<feGaussianBlur stdDeviation="2"/>
<feColorMatrix type="matrix" values="0 0 0 0 0 0 0 0 0 0 0 0 0 0 0 0 0 0 0.25 0"/>
<feBlend mode="normal" in2="effect1_dropShadow_181_40" result="effect2_dropShadow_181_40"/>
<feBlend mode="normal" in="SourceGraphic" in2="effect2_dropShadow_181_40" result="shape"/>
</filter>
</defs>
</svg>
