<svg width="14" height="14" viewBox="0 0 14 14" fill="none" xmlns="http://www.w3.org/2000/svg">
<path d="M11.6667 1.75C11.6667 1.42784 11.4055 1.16668 11.0834 1.16668H9.33335V0H8.16668V1.16668H6.41668V0H5.25V1.16668H3.5V0H2.33332V1.16668H0.583324C0.26116 1.16668 0 1.42784 0 1.75V2.91668H11.6667V1.75Z" fill="#FFBD54"/>
<path d="M9.32291 6.58867C9.70476 6.4741 10.1014 6.41616 10.5 6.41665C10.8952 6.417 11.2882 6.47497 11.6667 6.58872V3.5H0V11.0833C0 11.4055 0.26116 11.6666 0.583324 11.6666H6.58875C5.94152 9.50942 7.16565 7.23592 9.32291 6.58867ZM8.16668 4.66668H9.33335V5.83335H8.16668V4.66668ZM5.25 4.66668H6.41668V5.83335H5.25V4.66668ZM3.5 10.5H2.33332V9.33332H3.5V10.5ZM3.5 8.16668H2.33332V7H3.5V8.16668ZM3.5 5.83332H2.33332V4.66665H3.5V5.83332ZM5.25 7H6.41668V8.16668H5.25V7Z" fill="#FFBD54"/>
<path d="M10.5 7C8.56702 7 7 8.56702 7 10.5C7 12.433 8.56702 14 10.5 14C12.433 14 14 12.433 14 10.5C13.9978 8.56795 12.4321 7.00224 10.5 7ZM10.9124 10.9124C10.7558 11.0678 10.5253 11.1223 10.3157 11.0536L8.56568 10.4703L8.93493 9.36195L10.3425 9.82863L11.8376 8.33355L12.6624 9.15838L10.9124 10.9124Z" fill="#FFBD54"/>
</svg>
